<?xml version="1.0" standalone="no"?>
<!DOCTYPE svg PUBLIC "-//W3C//DTD SVG 20010904//EN"
 "http://www.w3.org/TR/2001/REC-SVG-20010904/DTD/svg10.dtd">
<svg version="1.0" xmlns="http://www.w3.org/2000/svg"
 width="1200.000000pt" height="1200.000000pt" viewBox="0 0 1200.000000 1200.000000"
 preserveAspectRatio="xMidYMid meet">
<metadata>
Created by potrace 1.14, written by Peter Selinger 2001-2017
</metadata>
<g transform="translate(0.000000,1200.000000) scale(0.100000,-0.100000)"
fill="#000000" stroke="none">
<path d="M6217 8433 c-2 -5 -3 -870 -3 -1923 l1 -1915 1921 -3 c1824 -2 1922
-1 1925 15 3 10 4 875 4 1923 l-1 1905 -1921 3 c-1057 1 -1923 -1 -1926 -5z"/>
<path d="M4024 8392 c-96 -24 -176 -80 -232 -162 l-23 -35 -162 -1 c-89 -1
-175 -5 -192 -8 -16 -3 -50 -8 -75 -12 -25 -3 -74 -12 -110 -21 -36 -8 -72
-16 -81 -18 -128 -27 -394 -148 -531 -242 -80 -55 -95 -66 -154 -116 l-34 -29
-57 28 c-77 37 -211 43 -288 13 -194 -74 -302 -290 -240 -479 90 -275 435
-359 638 -155 105 105 143 280 88 408 -11 24 -16 48 -13 53 12 16 106 89 170
133 170 115 445 221 637 246 28 3 64 8 80 10 33 5 177 8 241 6 l41 -1 6 -52
c20 -164 168 -305 342 -324 160 -18 319 75 388 226 24 52 30 81 32 144 4 115
-17 171 -102 272 -81 98 -241 148 -369 116z m149 -183 c130 -36 185 -197 105
-311 -47 -67 -163 -101 -237 -71 -157 64 -175 272 -31 364 46 29 101 36 163
18z"/>
<path d="M3618 7686 c-1 -2 -41 -6 -88 -9 -47 -4 -110 -11 -140 -17 -30 -6
-68 -13 -83 -16 -45 -7 -188 -59 -237 -85 -25 -13 -48 -23 -52 -24 -3 0 -50
-29 -105 -64 -119 -78 -276 -232 -352 -346 -44 -67 -90 -155 -142 -270 -16
-37 -59 -219 -67 -285 -19 -168 3 -414 49 -545 6 -16 14 -39 18 -50 18 -50
127 -260 153 -293 15 -21 38 -50 51 -66 37 -50 150 -160 213 -208 155 -119
377 -217 549 -242 22 -4 54 -9 70 -12 56 -9 200 -11 275 -3 79 9 102 12 187
31 l52 11 37 -37 c97 -97 258 -133 387 -86 142 51 231 154 257 299 14 80 5
150 -30 228 -36 79 -98 141 -184 183 -58 29 -78 34 -154 36 -48 1 -91 -1 -97
-6 -5 -4 -22 -10 -38 -14 -97 -23 -214 -144 -242 -251 -14 -52 -15 -59 -16
-122 l-1 -61 -66 -12 c-37 -7 -76 -14 -87 -17 -44 -8 -234 -4 -295 7 -125 22
-330 94 -351 123 -3 5 -10 9 -15 9 -23 0 -152 98 -224 169 -152 151 -271 366
-304 554 -3 17 -9 44 -12 60 -21 107 -6 328 32 452 9 32 18 63 20 69 4 23 59
139 66 142 4 2 8 8 8 13 0 43 196 272 305 356 113 86 310 169 471 197 78 14
288 15 349 1 141 -30 286 -78 318 -105 4 -4 3 -20 -3 -36 -38 -99 -25 -228 34
-328 70 -120 224 -197 366 -183 325 32 462 425 229 658 -75 75 -165 109 -284
106 -68 -2 -90 -7 -146 -34 -37 -18 -71 -33 -77 -33 -5 0 -36 13 -68 29 -120
59 -287 104 -434 116 -41 4 -80 8 -87 10 -6 2 -13 2 -15 1z m751 -2076 c97
-49 130 -159 84 -270 -27 -63 -115 -113 -192 -109 -147 7 -234 160 -166 295
51 102 169 138 274 84z"/>
<path d="M3098 7199 c-208 -33 -360 -255 -313 -459 33 -146 166 -273 310 -296
66 -11 62 -11 125 -2 149 19 275 134 314 285 20 75 20 113 2 181 -7 29 -10 52
-7 53 3 1 35 2 71 3 188 7 362 -86 478 -254 43 -63 82 -184 86 -272 7 -148
-51 -300 -157 -409 -63 -65 -78 -76 -157 -116 -57 -28 -57 -28 -65 5 -20 82
-104 175 -202 224 -181 89 -396 19 -500 -164 -32 -56 -45 -113 -44 -188 2
-152 81 -275 221 -342 59 -29 74 -32 160 -33 87 0 101 3 160 32 100 48 151
104 200 217 25 56 28 59 85 81 174 65 307 189 393 368 75 155 87 307 40 497
-6 25 -14 50 -18 55 -4 6 -14 29 -23 51 -38 99 -142 218 -254 291 -44 29 -84
53 -88 53 -4 0 -21 6 -38 14 -18 8 -39 16 -47 19 -8 2 -17 5 -20 6 -75 27
-241 35 -328 17 -37 -8 -65 -10 -68 -4 -11 17 -80 56 -130 73 -58 20 -121 24
-186 14z m153 -195 c50 -26 71 -47 94 -100 79 -174 -108 -350 -276 -261 -126
67 -146 238 -37 331 63 54 150 66 219 30z"/>
<path d="M5200 6457 c-3 -3 -17 -7 -30 -9 -14 -2 -51 -18 -82 -35 -230 -130
-271 -427 -85 -613 28 -27 55 -50 59 -50 17 0 -141 -277 -171 -300 -4 -3 -22
-25 -41 -50 -42 -55 -158 -171 -226 -225 -27 -21 -51 -42 -54 -45 -16 -17
-168 -110 -245 -150 -115 -60 -264 -112 -385 -134 -14 -2 -36 -7 -50 -10 -105
-24 -340 -29 -480 -10 -346 45 -680 205 -907 433 -47 47 -52 56 -40 70 36 42
50 88 53 178 4 96 -3 131 -39 198 -68 131 -191 205 -341 207 -114 1 -200 -36
-281 -123 -89 -95 -124 -232 -90 -358 37 -142 164 -258 308 -281 75 -11 190 0
203 21 11 19 52 8 80 -22 25 -27 120 -111 181 -160 40 -32 142 -99 152 -99 5
0 11 -4 13 -9 5 -14 198 -107 293 -141 50 -18 97 -35 105 -38 38 -13 133 -34
278 -60 96 -17 395 -12 515 9 322 56 595 180 847 384 192 157 336 334 457 564
46 87 49 91 83 93 222 9 387 188 374 405 -9 151 -92 267 -239 336 -38 18 -203
36 -215 24z m133 -188 c82 -22 138 -102 138 -194 0 -77 -34 -135 -105 -179
-36 -23 -125 -29 -159 -11 -14 7 -27 11 -30 9 -8 -8 -73 62 -90 98 -35 74 -16
171 44 228 58 55 123 71 202 49z m-3098 -562 c51 -29 96 -93 102 -148 23 -205
-232 -315 -358 -156 -95 119 -32 293 117 325 51 11 90 5 139 -21z"/>
<path d="M4781 4089 c-118 -35 -201 -147 -206 -281 -4 -90 11 -134 65 -190 98
-101 251 -89 365 29 25 25 43 48 40 51 -3 3 0 11 6 18 17 20 36 105 33 149 -5
82 -25 130 -73 176 -59 54 -145 72 -230 48z m132 -99 c42 -33 67 -145 46 -205
-36 -104 -78 -145 -149 -145 -83 0 -128 72 -117 187 8 88 35 139 92 171 33 19
99 14 128 -8z"/>
<path d="M7523 4079 c-157 -62 -235 -262 -160 -410 43 -85 125 -127 225 -115
145 17 250 134 258 290 3 62 -21 143 -54 181 -57 68 -176 92 -269 54z m140
-80 c44 -20 62 -66 62 -154 0 -66 -5 -88 -25 -123 -54 -95 -176 -112 -224 -30
-24 39 -28 150 -8 203 17 44 56 93 87 105 29 12 80 12 108 -1z"/>
<path d="M10119 4090 c-106 -32 -163 -167 -106 -250 15 -24 41 -41 85 -59 35
-14 68 -34 73 -44 16 -27 1 -77 -26 -89 -30 -14 -86 -3 -115 22 -31 27 -34 26
-68 -17 l-30 -38 24 -18 c108 -82 262 -49 315 68 43 94 13 176 -78 210 -74 28
-93 44 -93 76 0 55 66 76 125 39 34 -21 40 -19 79 27 23 27 12 41 -52 66 -45
18 -90 20 -133 7z"/>
<path d="M1969 4023 c-17 -38 -34 -70 -38 -73 -3 -3 -7 -9 -8 -15 -1 -5 -40
-90 -87 -188 -47 -98 -86 -180 -86 -183 0 -3 26 -4 57 -2 l57 3 28 58 29 58
92 -3 c84 -3 92 -5 94 -23 9 -88 15 -95 86 -95 41 0 48 3 44 18 -3 9 -10 42
-17 72 -6 30 -15 71 -20 90 -5 19 -26 106 -46 193 l-37 157 -58 0 -59 0 -31
-67z m96 -138 c3 -22 8 -48 11 -58 3 -11 7 -30 9 -43 2 -23 0 -24 -66 -24 -78
0 -76 -12 -24 110 15 36 32 76 37 90 l11 25 8 -30 c5 -16 12 -48 14 -70z"/>
<path d="M2589 4073 c-1 -10 -3 -27 -4 -38 -2 -11 -6 -47 -10 -80 -3 -33 -8
-73 -11 -90 -3 -16 -7 -50 -10 -75 -2 -25 -7 -61 -9 -80 -3 -19 -8 -57 -11
-85 -3 -27 -8 -53 -11 -57 -2 -5 23 -8 56 -8 34 0 61 3 62 8 0 7 3 27 14 107
4 28 8 58 8 68 1 12 10 17 29 17 18 0 31 -6 34 -17 20 -60 59 -160 67 -170 6
-8 34 -13 73 -13 58 0 63 2 54 18 -5 9 -24 53 -41 97 -18 44 -38 88 -46 97
-13 15 -12 18 14 31 48 25 76 74 79 137 5 112 -42 143 -218 148 -109 3 -118 2
-119 -15z m187 -79 c47 -13 52 -94 8 -132 -20 -18 -36 -22 -68 -20 -22 2 -40
8 -39 13 4 30 16 122 16 133 0 13 46 16 83 6z"/>
<path d="M3239 4063 c0 -16 -2 -36 -4 -45 -3 -16 5 -18 67 -18 l69 0 -5 -35
c-9 -53 -14 -94 -22 -160 -10 -92 -11 -106 -18 -164 -4 -29 -8 -59 -9 -65 -1
-7 20 -12 56 -14 31 -2 58 1 58 5 1 4 3 22 4 38 4 31 10 79 20 155 3 25 8 65
11 90 3 25 8 63 10 85 3 22 5 46 6 53 1 8 23 12 72 12 l71 0 2 45 2 45 -194 0
-195 0 -1 -27z"/>
<path d="M3880 4087 c0 -7 72 -176 86 -199 8 -16 13 -28 10 -28 -3 0 5 -23 18
-50 18 -38 22 -59 16 -83 -4 -18 -6 -44 -6 -59 1 -16 -1 -28 -4 -28 -3 0 -6
-18 -7 -40 l-2 -40 54 0 c30 0 56 3 58 8 5 7 14 75 22 155 4 37 71 157 88 157
4 0 7 4 7 9 0 8 77 130 90 141 7 7 30 48 30 55 0 7 -85 6 -104 -1 -9 -3 -33
-36 -54 -73 -20 -36 -45 -79 -55 -96 -10 -16 -20 -38 -23 -47 -4 -10 -9 -18
-13 -18 -4 0 -22 48 -40 108 -19 59 -38 113 -44 120 -8 10 -127 19 -127 9z"/>
<path d="M5429 4083 c0 -5 -2 -17 -4 -28 -4 -18 -13 -94 -20 -155 -1 -14 -6
-50 -10 -80 -4 -30 -9 -66 -10 -80 -9 -78 -17 -146 -20 -162 -3 -16 3 -18 49
-18 35 0 53 4 53 13 3 47 15 155 18 168 7 21 17 119 16 148 -1 14 2 22 5 18 6
-6 81 -218 89 -251 6 -25 23 -36 58 -36 22 0 33 10 61 53 36 57 74 121 106
179 23 42 46 62 36 31 -4 -11 -8 -40 -10 -64 -3 -24 -7 -60 -10 -79 -3 -19 -8
-60 -11 -90 -3 -30 -8 -63 -11 -72 -5 -16 2 -18 49 -18 36 0 54 4 54 13 1 6 4
35 8 62 3 28 8 64 9 80 12 104 18 153 21 171 3 20 11 83 20 172 l4 32 -52 0
c-29 0 -57 -4 -63 -8 -6 -4 -37 -52 -70 -107 -81 -138 -91 -155 -109 -195 -15
-30 -18 -32 -27 -16 -6 10 -11 23 -12 29 -1 7 -4 17 -8 22 -3 6 -12 30 -19 55
-19 67 -26 86 -40 112 -5 10 -9 25 -9 33 0 9 -7 29 -15 45 -14 28 -20 30 -70
30 -30 0 -55 -3 -56 -7z"/>
<path d="M6627 4033 c31 -124 54 -219 59 -243 2 -14 8 -34 11 -45 4 -11 8 -25
9 -30 1 -6 9 -43 19 -83 l18 -72 52 0 52 0 102 208 c57 114 116 233 132 265
l30 57 -53 0 c-29 0 -58 -4 -64 -8 -10 -6 -66 -107 -63 -114 1 -5 -14 -41 -68
-163 -29 -66 -53 -115 -54 -110 -2 20 -7 51 -17 100 -6 28 -13 70 -17 95 -4
24 -8 47 -10 51 -2 3 -7 20 -10 37 -3 18 -7 47 -11 64 -7 41 -17 48 -80 48
l-51 0 14 -57z"/>
<path d="M8189 4083 c0 -5 -2 -17 -4 -28 -3 -11 -7 -42 -10 -70 -3 -27 -7 -66
-10 -85 -2 -19 -11 -91 -20 -160 -8 -69 -17 -137 -19 -152 -4 -28 -4 -28 55
-28 49 0 59 3 60 18 0 9 2 26 4 37 4 20 15 112 21 170 1 17 5 50 9 75 13 93
14 108 20 168 l7 62 -56 0 c-31 0 -56 -3 -57 -7z"/>
<path d="M8606 4068 c-16 -63 -12 -68 65 -68 38 0 68 -4 65 -9 -3 -5 -8 -28
-10 -52 -3 -24 -7 -60 -10 -79 -3 -19 -8 -62 -12 -95 -11 -102 -13 -119 -18
-162 l-6 -43 58 0 c40 0 59 4 59 13 1 6 4 37 7 67 6 52 10 79 21 160 2 19 7
59 11 90 3 30 7 64 9 75 2 11 4 23 4 28 1 4 30 7 66 7 69 0 69 0 79 58 l6 32
-194 0 c-192 0 -194 0 -200 -22z"/>
<path d="M9407 4038 c-14 -29 -54 -114 -90 -188 -35 -74 -72 -153 -82 -175
-11 -22 -22 -42 -25 -45 -4 -3 -12 -20 -18 -37 l-11 -33 48 0 c58 0 75 12 100
73 l21 48 92 -3 93 -3 9 -50 c5 -27 14 -53 20 -57 6 -4 33 -8 60 -8 l49 0 -7
33 c-4 17 -9 41 -12 52 -2 11 -6 29 -8 40 -3 11 -20 85 -40 165 -31 130 -40
170 -50 220 -2 11 -19 16 -63 18 l-61 3 -25 -53z m79 -81 c1 -7 5 -30 9 -52 8
-50 15 -94 18 -120 2 -18 -5 -20 -65 -23 l-68 -3 36 83 c20 46 40 96 46 111
10 27 20 29 24 4z"/>
</g>
</svg>
